Coordinates
version=1
nRows=10
nColumns=22
inDegrees=yes

Units are S.I. units (second, meters, Newtons, ...)
If the header above contains a line with 'inDegrees', this indicates whether rotational values are in degrees (yes) or radians (no).

endheader
time	pelvis_tilt	pelvis_list	pelvis_rotation	pelvis_tx	pelvis_ty	pelvis_tz	hip_flexion_r	hip_adduction_r	hip_rotation_r	knee_angle_r	ankle_angle_r	subtalar_angle_r	hip_flexion_l	hip_adduction_l	hip_rotation_l	knee_angle_l	ankle_angle_l	subtalar_angle_l	lumbar_extension	lumbar_bending	lumbar_rotation
      5.96000000	     -1.95159115	      0.58701725	   -130.35505225	      0.86226861	      1.01277190	      0.70435173	      2.18790962	     10.22153253	     -5.27601903	    -14.16302936	     10.23192772	     -8.58504110	     20.52827539	     -9.77543358	      2.51053406	    -30.65253672	      8.76812238	      9.36060369	     -3.84076719	      0.94822697	      2.41653604
      5.97000000	     -1.99346245	      0.69998657	   -131.21081989	      0.85801549	      1.01240870	      0.70859793	      1.67882161	     10.30218327	     -4.58668022	    -13.94809315	     10.40998554	     -8.43539338	     20.90704186	     -9.84987417	      2.96052907	    -29.16402493	      8.61581046	      9.57182336	     -3.90406501	      1.00327196	      2.60301949
      5.98000000	     -2.01175992	      0.79881052	   -132.06776936	      0.85377424	      1.01199136	      0.71288002	      1.21057987	     10.33588595	     -3.91704430	    -13.80580724	     10.64912526	     -8.27205439	     21.25902491	     -9.89615719	      3.33291135	    -27.69654094	      8.45777478	      9.85146026	     -3.95808550	      1.03243400	      2.78441548
      5.99000000	     -2.01148377	      0.88364062	   -132.92756464	      0.84954502	      1.01152722	      0.71721540	      0.78477496	     10.32615642	     -3.26530907	    -13.74483204	     10.94853974	     -8.09203771	     21.57464829	     -9.91664376	      3.64026084	    -26.23915744	      8.30251068	     10.20380632	     -4.00524077	      1.04490268	      2.95799821
      6.00000000	     -2.00630729	      0.94726168	   -133.78530172	      0.84530975	      1.01103983	      0.72158354	      0.38592978	     10.28444317	     -2.61401570	    -13.76059483	     11.29820404	     -7.86690167	     21.83623671	     -9.91591871	      3.90685786	    -24.78740370	      8.16941152	     10.66637893	     -4.06383910	      1.03769807	      3.11939497
      6.01000000	     -1.98534622	      1.00913274	   -134.64769361	      0.84102548	      1.01050789	      0.72601238	      0.02552781	     10.21908061	     -1.96395807	    -13.83407537	     11.67628691	     -7.65733184	     22.06089070	     -9.90383667	      4.13487494	    -23.33829130	      8.01638980	     11.15198539	     -4.09676401	      1.01667128	      3.28780428
      6.02000000	     -1.95267283	      1.06012285	   -135.51500353	      0.83669367	      1.00994536	      0.73048852	     -0.30205457	     10.12844192	     -1.29985046	    -13.97300841	     12.06802909	     -7.46402126	     22.23533172	     -9.87881419	      4.34431857	    -21.88901458	      7.85310583	     11.63257506	     -4.12006653	      0.97476944	      3.46908310
      6.03000000	     -1.91469398	      1.10252474	   -136.38033537	      0.83230882	      1.00935789	      0.73504092	     -0.60788161	     10.01925020	     -0.64003354	    -14.16119924	     12.46309113	     -7.28609496	     22.35664767	     -9.84611128	      4.55767196	    -20.44077331	      7.68776027	     12.07601280	     -4.13065241	      0.91852637	      3.66809628
      6.04000000	     -1.89425454	      1.12958302	   -137.22173033	      0.82789104	      1.00876685	      0.73969631	     -0.92573298	      9.90547976	      0.03617540	    -14.37812640	     12.86117145	     -7.07748849	     22.41414356	     -9.80948517	      4.82013458	    -19.01175546	      7.56497295	     12.51048986	     -4.15712865	      0.86575614	      3.83349104
      6.05000000	     -1.85561102	      1.16872428	   -138.06350964	      0.82339719	      1.00810611	      0.74443204	     -1.20838328	      9.78047714	      0.69808036	    -14.62186417	     13.25072601	     -6.92811676	     22.45511131	     -9.78027312	      5.08666572	    -17.61137598	      7.42698212	     12.79197380	     -4.14159506	      0.80320575	      4.03103580
